solid AdjustmentScrewFoot
facet normal -0.0 -0.0 1.0
  outer loop
    vertex -4.685999146492437 -0.8501871847259059 0.79375
    vertex -4.750212821394204 0.3418836080629403 0.79375
    vertex -4.755605352578872 -0.2561717793262711 0.79375
  endloop
endfacet
facet normal -0.0 -0.0 1.0
  outer loop
    vertex -4.750212821394204 0.3418836080629403 0.79375
    vertex -4.685999146492437 -0.8501871847259059 0.79375
    vertex -4.669906596376554 0.9345472867216326 0.79375
  endloop
endfacet
facet normal -0.0 -0.0 1.0
  outer loop
    vertex -4.669906596376554 0.9345472867216326 0.79375
    vertex -4.685999146492437 -0.8501871847259059 0.79375
    vertex -4.5424919345856125 -1.4307946303452044 0.79375
  endloop
endfacet
facet normal -0.0 -0.0 1.0
  outer loop
    vertex -4.669906596376554 0.9345472867216326 0.79375
    vertex -4.5424919345856125 -1.4307946303452044 0.79375
    vertex -4.515953154667065 1.5124725963972359 0.79375
  endloop
endfacet
facet normal -0.0 -0.0 1.0
  outer loop
    vertex -4.515953154667065 1.5124725963972359 0.79375
    vertex -4.5424919345856125 -1.4307946303452044 0.79375
    vertex -4.327346911317221 -1.9888375899286783 0.79375
  endloop
endfacet
facet normal -0.0 -0.0 1.0
  outer loop
    vertex -4.515953154667065 1.5124725963972359 0.79375
    vertex -4.327346911317221 -1.9888375899286783 0.79375
    vertex -4.290780434008824 2.0665453097203197 0.79375
  endloop
endfacet
facet normal -0.0 -0.0 1.0
  outer loop
    vertex -4.290780434008824 2.0665453097203197 0.79375
    vertex -4.327346911317221 -1.9888375899286783 0.79375
    vertex -4.043957042225613 -2.515515392644989 0.79375
  endloop
endfacet
facet normal -0.0 -0.0 1.0
  outer loop
    vertex -4.290780434008824 2.0665453097203197 0.79375
    vertex -4.043957042225613 -2.515515392644989 0.79375
    vertex -3.9979395427182762 2.5880273690147857 0.79375
  endloop
endfacet
facet normal -0.0 -0.0 1.0
  outer loop
    vertex -3.9979395427182762 2.5880273690147857 0.79375
    vertex -4.043957042225613 -2.515515392644989 0.79375
    vertex -3.696791554835267 -3.0025220149232292 0.79375
  endloop
endfacet
facet normal -0.0 -0.0 1.0
  outer loop
    vertex -3.9979395427182762 2.5880273690147857 0.79375
    vertex -3.696791554835267 -3.0025220149232292 0.79375
    vertex -3.642048756585741 3.0686946906872747 0.79375
  endloop
endfacet
facet normal -0.0 -0.0 1.0
  outer loop
    vertex -3.642048756585741 3.0686946906872747 0.79375
    vertex -3.696791554835267 -3.0025220149232292 0.79375
    vertex -3.2913254562689356 -3.4421770714064204 0.79375
  endloop
endfacet
facet normal -0.0 -0.0 1.0
  outer loop
    vertex -3.642048756585741 3.0686946906872747 0.79375
    vertex -3.2913254562689356 -3.4421770714064204 0.79375
    vertex -3.2287206859073794 3.5009668639382743 0.79375
  endloop
endfacet
facet normal -0.0 -0.0 1.0
  outer loop
    vertex -3.2287206859073794 3.5009668639382743 0.79375
    vertex -3.2913254562689356 -3.4421770714064204 0.79375
    vertex -2.8339531891147183 -3.827546939216621 0.79375
  endloop
endfacet
facet normal -0.0 -0.0 1.0
  outer loop
    vertex -3.2287206859073794 3.5009668639382743 0.79375
    vertex -2.8339531891147183 -3.827546939216621 0.79375
    vertex -2.7644737612680093 3.878026698368735 0.79375
  endloop
endfacet
facet normal -0.0 -0.0 1.0
  outer loop
    vertex -2.7644737612680093 3.878026698368735 0.79375
    vertex -2.8339531891147183 -3.827546939216621 0.79375
    vertex -2.331887787246587 -4.152554105329661 0.79375
  endloop
endfacet
facet normal -0.0 -0.0 1.0
  outer loop
    vertex -2.7644737612680093 3.878026698368735 0.79375
    vertex -2.331887787246587 -4.152554105329661 0.79375
    vertex -2.256629433996866 4.1939277351450635 0.79375
  endloop
endfacet
facet normal -0.0 -0.0 1.0
  outer loop
    vertex -2.256629433996866 4.1939277351450635 0.79375
    vertex -2.331887787246587 -4.152554105329661 0.79375
    vertex -1.7930471219713326 -4.41207301258607 0.79375
  endloop
endfacet
facet normal -0.0 -0.0 1.0
  outer loop
    vertex -2.256629433996866 4.1939277351450635 0.79375
    vertex -1.7930471219713326 -4.41207301258607 0.79375
    vertex -1.7131967125065104 4.44368802620716 0.79375
  endloop
endfacet
facet normal -0.0 -0.0 1.0
  outer loop
    vertex -1.7131967125065104 4.44368802620716 0.79375
    vertex -1.7930471219713326 -4.41207301258607 0.79375
    vertex -1.2259290324681582 -4.602010892789334 0.79375
  endloop
endfacet
facet normal -0.0 -0.0 1.0
  outer loop
    vertex -1.7131967125065104 4.44368802620716 0.79375
    vertex -1.2259290324681582 -4.602010892789334 0.79375
    vertex -1.142745855445818 4.623368702565416 0.79375
  endloop
endfacet
facet normal -0.0 -0.0 1.0
  outer loop
    vertex -1.142745855445818 4.623368702565416 0.79375
    vertex -1.2259290324681582 -4.602010892789334 0.79375
    vertex -0.6394773097884574 -4.719372312105257 0.79375
  endloop
endfacet
facet normal -0.0 -0.0 1.0
  outer loop
    vertex -1.142745855445818 4.623368702565416 0.79375
    vertex -0.6394773097884574 -4.719372312105257 0.79375
    vertex -0.55427321360146 4.730136092617624 0.79375
  endloop
endfacet
facet normal -0.0 -0.0 1.0
  outer loop
    vertex -0.55427321360146 4.730136092617624 0.79375
    vertex -0.6394773097884574 -4.719372312105257 0.79375
    vertex -0.04294064792816082 -4.762306410842913 0.79375
  endloop
endfacet
facet normal -0.0 -0.0 1.0
  outer loop
    vertex -0.55427321360146 4.730136092617624 0.79375
    vertex -0.04294064792816082 -4.762306410842913 0.79375
    vertex 0.04294064792816258 4.762306410842913 0.79375
  endloop
endfacet
facet normal -0.0 -0.0 1.0
  outer loop
    vertex 0.04294064792816258 4.762306410842913 0.79375
    vertex -0.04294064792816082 -4.762306410842913 0.79375
    vertex 0.55427321360146 -4.730136092617624 0.79375
  endloop
endfacet
facet normal -0.0 -0.0 1.0
  outer loop
    vertex 0.04294064792816258 4.762306410842913 0.79375
    vertex 0.55427321360146 -4.730136092617624 0.79375
    vertex 0.6394773097884577 4.719372312105257 0.79375
  endloop
endfacet
facet normal -0.0 -0.0 1.0
  outer loop
    vertex 0.6394773097884577 4.719372312105257 0.79375
    vertex 0.55427321360146 -4.730136092617624 0.79375
    vertex 1.142745855445819 -4.623368702565416 0.79375
  endloop
endfacet
facet normal -0.0 -0.0 1.0
  outer loop
    vertex 0.6394773097884577 4.719372312105257 0.79375
    vertex 1.142745855445819 -4.623368702565416 0.79375
    vertex 1.22592903246816 4.602010892789334 0.79375
  endloop
endfacet
facet normal -0.0 -0.0 1.0
  outer loop
    vertex 1.22592903246816 4.602010892789334 0.79375
    vertex 1.142745855445819 -4.623368702565416 0.79375
    vertex 1.7131967125065122 -4.44368802620716 0.79375
  endloop
endfacet
facet normal -0.0 -0.0 1.0
  outer loop
    vertex 1.22592903246816 4.602010892789334 0.79375
    vertex 1.7131967125065122 -4.44368802620716 0.79375
    vertex 1.7930471219713333 4.412073012586069 0.79375
  endloop
endfacet
facet normal -0.0 -0.0 1.0
  outer loop
    vertex 1.7930471219713333 4.412073012586069 0.79375
    vertex 1.7131967125065122 -4.44368802620716 0.79375
    vertex 2.256629433996869 -4.193927735145061 0.79375
  endloop
endfacet
facet normal -0.0 -0.0 1.0
  outer loop
    vertex 1.7930471219713333 4.412073012586069 0.79375
    vertex 2.256629433996869 -4.193927735145061 0.79375
    vertex 2.331887787246587 4.15255410532966 0.79375
  endloop
endfacet
facet normal -0.0 -0.0 1.0
  outer loop
    vertex 2.331887787246587 4.15255410532966 0.79375
    vertex 2.256629433996869 -4.193927735145061 0.79375
    vertex 2.764473761268009 -3.878026698368736 0.79375
  endloop
endfacet
facet normal -0.0 -0.0 1.0
  outer loop
    vertex 2.331887787246587 4.15255410532966 0.79375
    vertex 2.764473761268009 -3.878026698368736 0.79375
    vertex 2.833953189114719 3.82754693921662 0.79375
  endloop
endfacet
facet normal -0.0 -0.0 1.0
  outer loop
    vertex 2.833953189114719 3.82754693921662 0.79375
    vertex 2.764473761268009 -3.878026698368736 0.79375
    vertex 3.2287206859073785 -3.5009668639382743 0.79375
  endloop
endfacet
facet normal -0.0 -0.0 1.0
  outer loop
    vertex 2.833953189114719 3.82754693921662 0.79375
    vertex 3.2287206859073785 -3.5009668639382743 0.79375
    vertex 3.291325456268934 3.4421770714064213 0.79375
  endloop
endfacet
facet normal -0.0 -0.0 1.0
  outer loop
    vertex 3.291325456268934 3.4421770714064213 0.79375
    vertex 3.2287206859073785 -3.5009668639382743 0.79375
    vertex 3.642048756585741 -3.0686946906872747 0.79375
  endloop
endfacet
facet normal -0.0 -0.0 1.0
  outer loop
    vertex 3.291325456268934 3.4421770714064213 0.79375
    vertex 3.642048756585741 -3.0686946906872747 0.79375
    vertex 3.6967915548352663 3.002522014923231 0.79375
  endloop
endfacet
facet normal -0.0 -0.0 1.0
  outer loop
    vertex 3.6967915548352663 3.002522014923231 0.79375
    vertex 3.642048756585741 -3.0686946906872747 0.79375
    vertex 3.997939542718277 -2.5880273690147844 0.79375
  endloop
endfacet
facet normal -0.0 -0.0 1.0
  outer loop
    vertex 3.6967915548352663 3.002522014923231 0.79375
    vertex 3.997939542718277 -2.5880273690147844 0.79375
    vertex 4.043957042225613 2.515515392644989 0.79375
  endloop
endfacet
facet normal -0.0 -0.0 1.0
  outer loop
    vertex 4.043957042225613 2.515515392644989 0.79375
    vertex 3.997939542718277 -2.5880273690147844 0.79375
    vertex 4.290780434008825 -2.0665453097203184 0.79375
  endloop
endfacet
facet normal -0.0 -0.0 1.0
  outer loop
    vertex 4.043957042225613 2.515515392644989 0.79375
    vertex 4.290780434008825 -2.0665453097203184 0.79375
    vertex 4.327346911317221 1.9888375899286783 0.79375
  endloop
endfacet
facet normal -0.0 -0.0 1.0
  outer loop
    vertex 4.327346911317221 1.9888375899286783 0.79375
    vertex 4.290780434008825 -2.0665453097203184 0.79375
    vertex 4.515953154667065 -1.5124725963972374 0.79375
  endloop
endfacet
facet normal -0.0 -0.0 1.0
  outer loop
    vertex 4.327346911317221 1.9888375899286783 0.79375
    vertex 4.515953154667065 -1.5124725963972374 0.79375
    vertex 4.542491934585611 1.4307946303452075 0.79375
  endloop
endfacet
facet normal -0.0 -0.0 1.0
  outer loop
    vertex 4.542491934585611 1.4307946303452075 0.79375
    vertex 4.515953154667065 -1.5124725963972374 0.79375
    vertex 4.669906596376554 -0.9345472867216339 0.79375
  endloop
endfacet
facet normal -0.0 -0.0 1.0
  outer loop
    vertex 4.542491934585611 1.4307946303452075 0.79375
    vertex 4.669906596376554 -0.9345472867216339 0.79375
    vertex 4.685999146492437 0.850187184725907 0.79375
  endloop
endfacet
facet normal -0.0 -0.0 1.0
  outer loop
    vertex 4.685999146492437 0.850187184725907 0.79375
    vertex 4.669906596376554 -0.9345472867216339 0.79375
    vertex 4.750212821394203 -0.341883608062941 0.79375
  endloop
endfacet
facet normal -0.0 -0.0 1.0
  outer loop
    vertex 4.685999146492437 0.850187184725907 0.79375
    vertex 4.750212821394203 -0.341883608062941 0.79375
    vertex 4.755605352578872 0.25617177932627216 0.79375
  endloop
endfacet
facet normal 0.543417820265571 0.8394623711744416 0.0
  outer loop
    vertex 2.331887787246587 4.15255410532966 0.79375
    vertex 2.833953189114719 3.82754693921662 -1.5875
    vertex 2.331887787246587 4.15255410532966 -1.5875
  endloop
endfacet
facet normal 0.543417820265571 0.8394623711744416 0.0
  outer loop
    vertex 2.833953189114719 3.82754693921662 -1.5875
    vertex 2.331887787246587 4.15255410532966 0.79375
    vertex 2.833953189114719 3.82754693921662 0.79375
  endloop
endfacet
facet normal 0.6443453418765943 0.7647346470521228 0.0
  outer loop
    vertex 2.833953189114719 3.82754693921662 0.79375
    vertex 3.291325456268934 3.4421770714064213 -1.5875
    vertex 2.833953189114719 3.82754693921662 -1.5875
  endloop
endfacet
facet normal 0.6443453418765943 0.7647346470521228 0.0
  outer loop
    vertex 3.291325456268934 3.4421770714064213 -1.5875
    vertex 2.833953189114719 3.82754693921662 0.79375
    vertex 3.291325456268934 3.4421770714064213 0.79375
  endloop
endfacet
facet normal 0.7351111525329695 0.6779466007154615 0.0
  outer loop
    vertex 3.291325456268934 3.4421770714064213 -1.5875
    vertex 3.6967915548352663 3.002522014923231 0.79375
    vertex 3.6967915548352663 3.002522014923231 -1.5875
  endloop
endfacet
facet normal 0.7351111525329695 0.6779466007154615 0.0
  outer loop
    vertex 3.6967915548352663 3.002522014923231 0.79375
    vertex 3.291325456268934 3.4421770714064213 -1.5875
    vertex 3.291325456268934 3.4421770714064213 0.79375
  endloop
endfacet
facet normal 0.8142838211797869 0.5804669314998444 0.0
  outer loop
    vertex 3.6967915548352663 3.002522014923231 -1.5875
    vertex 4.043957042225613 2.515515392644989 0.79375
    vertex 4.043957042225613 2.515515392644989 -1.5875
  endloop
endfacet
facet normal 0.8142838211797869 0.5804669314998444 0.0
  outer loop
    vertex 4.043957042225613 2.515515392644989 0.79375
    vertex 3.6967915548352663 3.002522014923231 -1.5875
    vertex 3.6967915548352663 3.002522014923231 0.79375
  endloop
endfacet
facet normal 0.8806147475370204 0.4738329520203401 0.0
  outer loop
    vertex 4.043957042225613 2.515515392644989 -1.5875
    vertex 4.327346911317221 1.9888375899286783 0.79375
    vertex 4.327346911317221 1.9888375899286783 -1.5875
  endloop
endfacet
facet normal 0.8806147475370204 0.4738329520203401 0.0
  outer loop
    vertex 4.327346911317221 1.9888375899286783 0.79375
    vertex 4.043957042225613 2.515515392644989 -1.5875
    vertex 4.043957042225613 2.515515392644989 0.79375
  endloop
endfacet
facet normal 0.9330578532718448 0.3597263438333875 0.0
  outer loop
    vertex 4.327346911317221 1.9888375899286783 -1.5875
    vertex 4.542491934585611 1.4307946303452075 0.79375
    vertex 4.542491934585611 1.4307946303452075 -1.5875
  endloop
endfacet
facet normal 0.9330578532718448 0.3597263438333875 0.0
  outer loop
    vertex 4.542491934585611 1.4307946303452075 0.79375
    vertex 4.327346911317221 1.9888375899286783 -1.5875
    vertex 4.327346911317221 1.9888375899286783 0.79375
  endloop
endfacet
facet normal 0.9707860792788272 0.2399466363140831 0.0
  outer loop
    vertex 4.542491934585611 1.4307946303452075 -1.5875
    vertex 4.685999146492437 0.850187184725907 0.79375
    vertex 4.685999146492437 0.850187184725907 -1.5875
  endloop
endfacet
facet normal 0.9707860792788272 0.2399466363140831 0.0
  outer loop
    vertex 4.685999146492437 0.850187184725907 0.79375
    vertex 4.542491934585611 1.4307946303452075 -1.5875
    vertex 4.542491934585611 1.4307946303452075 0.79375
  endloop
endfacet
facet normal 0.9932044288960888 0.11638282700293061 0.0
  outer loop
    vertex 4.685999146492437 0.850187184725907 -1.5875
    vertex 4.755605352578872 0.25617177932627216 0.79375
    vertex 4.755605352578872 0.25617177932627216 -1.5875
  endloop
endfacet
facet normal 0.9932044288960888 0.11638282700293061 0.0
  outer loop
    vertex 4.755605352578872 0.25617177932627216 0.79375
    vertex 4.685999146492437 0.850187184725907 -1.5875
    vertex 4.685999146492437 0.850187184725907 0.79375
  endloop
endfacet
facet normal 0.999959351358092 -0.009016409013786988 0.0
  outer loop
    vertex 4.755605352578872 0.25617177932627216 -1.5875
    vertex 4.750212821394203 -0.341883608062941 0.79375
    vertex 4.750212821394203 -0.341883608062941 -1.5875
  endloop
endfacet
facet normal 0.999959351358092 -0.009016409013786988 0.0
  outer loop
    vertex 4.750212821394203 -0.341883608062941 0.79375
    vertex 4.755605352578872 0.25617177932627216 -1.5875
    vertex 4.755605352578872 0.25617177932627216 0.79375
  endloop
endfacet
facet normal 0.9909443175024164 -0.1342734508742151 0.0
  outer loop
    vertex 4.750212821394203 -0.341883608062941 -1.5875
    vertex 4.669906596376554 -0.9345472867216339 0.79375
    vertex 4.669906596376554 -0.9345472867216339 -1.5875
  endloop
endfacet
facet normal 0.9909443175024164 -0.1342734508742151 0.0
  outer loop
    vertex 4.669906596376554 -0.9345472867216339 0.79375
    vertex 4.750212821394203 -0.341883608062941 -1.5875
    vertex 4.750212821394203 -0.341883608062941 0.79375
  endloop
endfacet
facet normal 0.9663014997982851 -0.2574129202032891 0.0
  outer loop
    vertex 4.669906596376554 -0.9345472867216339 -1.5875
    vertex 4.515953154667065 -1.5124725963972374 0.79375
    vertex 4.515953154667065 -1.5124725963972374 -1.5875
  endloop
endfacet
facet normal 0.9663014997982851 -0.2574129202032891 0.0
  outer loop
    vertex 4.515953154667065 -1.5124725963972374 0.79375
    vertex 4.669906596376554 -0.9345472867216339 -1.5875
    vertex 4.669906596376554 -0.9345472867216339 0.79375
  endloop
endfacet
facet normal 0.926419530201799 -0.37649283400972977 0.0
  outer loop
    vertex 4.515953154667065 -1.5124725963972374 -1.5875
    vertex 4.290780434008825 -2.0665453097203184 0.79375
    vertex 4.290780434008825 -2.0665453097203184 -1.5875
  endloop
endfacet
facet normal 0.926419530201799 -0.37649283400972977 0.0
  outer loop
    vertex 4.290780434008825 -2.0665453097203184 0.79375
    vertex 4.515953154667065 -1.5124725963972374 -1.5875
    vertex 4.515953154667065 -1.5124725963972374 0.79375
  endloop
endfacet
facet normal 0.8719273711978297 -0.48963523091791733 0.0
  outer loop
    vertex 4.290780434008825 -2.0665453097203184 -1.5875
    vertex 3.997939542718277 -2.5880273690147844 0.79375
    vertex 3.997939542718277 -2.5880273690147844 -1.5875
  endloop
endfacet
facet normal 0.8719273711978297 -0.48963523091791733 0.0
  outer loop
    vertex 3.997939542718277 -2.5880273690147844 0.79375
    vertex 4.290780434008825 -2.0665453097203184 -1.5875
    vertex 4.290780434008825 -2.0665453097203184 0.79375
  endloop
endfacet
facet normal 0.8036843966859042 -0.5950557877406237 0.0
  outer loop
    vertex 3.997939542718277 -2.5880273690147844 -1.5875
    vertex 3.642048756585741 -3.0686946906872747 0.79375
    vertex 3.642048756585741 -3.0686946906872747 -1.5875
  endloop
endfacet
facet normal 0.8036843966859042 -0.5950557877406237 0.0
  outer loop
    vertex 3.642048756585741 -3.0686946906872747 0.79375
    vertex 3.997939542718277 -2.5880273690147844 -1.5875
    vertex 3.997939542718277 -2.5880273690147844 0.79375
  endloop
endfacet
facet normal 0.7227668391404556 -0.6910919593215614 0.0
  outer loop
    vertex 3.642048756585741 -3.0686946906872747 -1.5875
    vertex 3.2287206859073785 -3.5009668639382743 0.79375
    vertex 3.2287206859073785 -3.5009668639382743 -1.5875
  endloop
endfacet
facet normal 0.7227668391404556 -0.6910919593215614 0.0
  outer loop
    vertex 3.2287206859073785 -3.5009668639382743 0.79375
    vertex 3.642048756585741 -3.0686946906872747 -1.5875
    vertex 3.642048756585741 -3.0686946906872747 0.79375
  endloop
endfacet
facet normal 0.6304508167817808 -0.7762291978656725 0.0
  outer loop
    vertex 3.2287206859073785 -3.5009668639382743 0.79375
    vertex 2.764473761268009 -3.878026698368736 -1.5875
    vertex 3.2287206859073785 -3.5009668639382743 -1.5875
  endloop
endfacet
facet normal 0.6304508167817808 -0.7762291978656725 0.0
  outer loop
    vertex 2.764473761268009 -3.878026698368736 -1.5875
    vertex 3.2287206859073785 -3.5009668639382743 0.79375
    vertex 2.764473761268009 -3.878026698368736 0.79375
  endloop
endfacet
facet normal 0.5281922084293942 -0.8491248382625959 0.0
  outer loop
    vertex 2.764473761268009 -3.878026698368736 0.79375
    vertex 2.256629433996869 -4.193927735145061 -1.5875
    vertex 2.764473761268009 -3.878026698368736 -1.5875
  endloop
endfacet
facet normal 0.5281922084293942 -0.8491248382625959 0.0
  outer loop
    vertex 2.256629433996869 -4.193927735145061 -1.5875
    vertex 2.764473761268009 -3.878026698368736 0.79375
    vertex 2.256629433996869 -4.193927735145061 0.79375
  endloop
endfacet
facet normal 0.41760369342334486 -0.9086292727175265 0.0
  outer loop
    vertex 2.256629433996869 -4.193927735145061 0.79375
    vertex 1.7131967125065122 -4.44368802620716 -1.5875
    vertex 2.256629433996869 -4.193927735145061 -1.5875
  endloop
endfacet
facet normal 0.41760369342334486 -0.9086292727175265 0.0
  outer loop
    vertex 1.7131967125065122 -4.44368802620716 -1.5875
    vertex 2.256629433996869 -4.193927735145061 0.79375
    vertex 1.7131967125065122 -4.44368802620716 0.79375
  endloop
endfacet
facet normal 0.3004293187076554 -0.9538040807528841 0.0
  outer loop
    vertex 1.7131967125065122 -4.44368802620716 0.79375
    vertex 1.142745855445819 -4.623368702565416 -1.5875
    vertex 1.7131967125065122 -4.44368802620716 -1.5875
  endloop
endfacet
facet normal 0.3004293187076554 -0.9538040807528841 0.0
  outer loop
    vertex 1.142745855445819 -4.623368702565416 -1.5875
    vertex 1.7131967125065122 -4.44368802620716 0.79375
    vertex 1.142745855445819 -4.623368702565416 0.79375
  endloop
endfacet
facet normal 0.1785169941681694 -0.983936828659829 0.0
  outer loop
    vertex 1.142745855445819 -4.623368702565416 0.79375
    vertex 0.55427321360146 -4.730136092617624 -1.5875
    vertex 1.142745855445819 -4.623368702565416 -1.5875
  endloop
endfacet
facet normal 0.1785169941681694 -0.983936828659829 0.0
  outer loop
    vertex 0.55427321360146 -4.730136092617624 -1.5875
    vertex 1.142745855445819 -4.623368702565416 0.79375
    vertex 0.55427321360146 -4.730136092617624 0.79375
  endloop
endfacet
facet normal 0.05378934998976773 -0.9985523050034377 0.0
  outer loop
    vertex 0.55427321360146 -4.730136092617624 0.79375
    vertex -0.04294064792816082 -4.762306410842913 -1.5875
    vertex 0.55427321360146 -4.730136092617624 -1.5875
  endloop
endfacet
facet normal 0.05378934998976773 -0.9985523050034377 0.0
  outer loop
    vertex -0.04294064792816082 -4.762306410842913 -1.5875
    vertex 0.55427321360146 -4.730136092617624 0.79375
    vertex -0.04294064792816082 -4.762306410842913 0.79375
  endloop
endfacet
facet normal -0.07178658437017169 -0.9974200149909086 -0.0
  outer loop
    vertex -0.04294064792816082 -4.762306410842913 0.79375
    vertex -0.6394773097884574 -4.719372312105257 -1.5875
    vertex -0.04294064792816082 -4.762306410842913 -1.5875
  endloop
endfacet
facet normal -0.07178658437017169 -0.9974200149909086 -0.0
  outer loop
    vertex -0.6394773097884574 -4.719372312105257 -1.5875
    vertex -0.04294064792816082 -4.762306410842913 0.79375
    vertex -0.6394773097884574 -4.719372312105257 0.79375
  endloop
endfacet
facet normal -0.1962304014113671 -0.9805578155121369 -0.0
  outer loop
    vertex -0.6394773097884574 -4.719372312105257 0.79375
    vertex -1.2259290324681582 -4.602010892789334 -1.5875
    vertex -0.6394773097884574 -4.719372312105257 -1.5875
  endloop
endfacet
facet normal -0.1962304014113671 -0.9805578155121369 -0.0
  outer loop
    vertex -1.2259290324681582 -4.602010892789334 -1.5875
    vertex -0.6394773097884574 -4.719372312105257 0.79375
    vertex -1.2259290324681582 -4.602010892789334 0.79375
  endloop
endfacet
facet normal -0.3175795477999432 -0.9482316335258931 -0.0
  outer loop
    vertex -1.2259290324681582 -4.602010892789334 0.79375
    vertex -1.7930471219713326 -4.41207301258607 -1.5875
    vertex -1.2259290324681582 -4.602010892789334 -1.5875
  endloop
endfacet
facet normal -0.3175795477999432 -0.9482316335258931 -0.0
  outer loop
    vertex -1.7930471219713326 -4.41207301258607 -1.5875
    vertex -1.2259290324681582 -4.602010892789334 0.79375
    vertex -1.7930471219713326 -4.41207301258607 0.79375
  endloop
endfacet
facet normal -0.4339202750068909 -0.900951272232824 -0.0
  outer loop
    vertex -1.7930471219713326 -4.41207301258607 0.79375
    vertex -2.331887787246587 -4.152554105329661 -1.5875
    vertex -1.7930471219713326 -4.41207301258607 -1.5875
  endloop
endfacet
facet normal -0.4339202750068909 -0.900951272232824 -0.0
  outer loop
    vertex -2.331887787246587 -4.152554105329661 -1.5875
    vertex -1.7930471219713326 -4.41207301258607 0.79375
    vertex -2.331887787246587 -4.152554105329661 0.79375
  endloop
endfacet
facet normal -0.5434178202655717 -0.839462371174441 -0.0
  outer loop
    vertex -2.331887787246587 -4.152554105329661 0.79375
    vertex -2.8339531891147183 -3.827546939216621 -1.5875
    vertex -2.331887787246587 -4.152554105329661 -1.5875
  endloop
endfacet
facet normal -0.5434178202655717 -0.839462371174441 -0.0
  outer loop
    vertex -2.8339531891147183 -3.827546939216621 -1.5875
    vertex -2.331887787246587 -4.152554105329661 0.79375
    vertex -2.8339531891147183 -3.827546939216621 0.79375
  endloop
endfacet
facet normal -0.6443453418765936 -0.7647346470521235 -0.0
  outer loop
    vertex -2.8339531891147183 -3.827546939216621 0.79375
    vertex -3.2913254562689356 -3.4421770714064204 -1.5875
    vertex -2.8339531891147183 -3.827546939216621 -1.5875
  endloop
endfacet
facet normal -0.6443453418765936 -0.7647346470521235 -0.0
  outer loop
    vertex -3.2913254562689356 -3.4421770714064204 -1.5875
    vertex -2.8339531891147183 -3.827546939216621 0.79375
    vertex -3.2913254562689356 -3.4421770714064204 0.79375
  endloop
endfacet
facet normal -0.735111152532971 -0.67794660071546 -0.0
  outer loop
    vertex -3.696791554835267 -3.0025220149232292 0.79375
    vertex -3.2913254562689356 -3.4421770714064204 -1.5875
    vertex -3.2913254562689356 -3.4421770714064204 0.79375
  endloop
endfacet
facet normal -0.735111152532971 -0.67794660071546 -0.0
  outer loop
    vertex -3.2913254562689356 -3.4421770714064204 -1.5875
    vertex -3.696791554835267 -3.0025220149232292 0.79375
    vertex -3.696791554835267 -3.0025220149232292 -1.5875
  endloop
endfacet
facet normal -0.8142838211797861 -0.5804669314998452 -0.0
  outer loop
    vertex -4.043957042225613 -2.515515392644989 0.79375
    vertex -3.696791554835267 -3.0025220149232292 -1.5875
    vertex -3.696791554835267 -3.0025220149232292 0.79375
  endloop
endfacet
facet normal -0.8142838211797861 -0.5804669314998452 -0.0
  outer loop
    vertex -3.696791554835267 -3.0025220149232292 -1.5875
    vertex -4.043957042225613 -2.515515392644989 0.79375
    vertex -4.043957042225613 -2.515515392644989 -1.5875
  endloop
endfacet
facet normal -0.8806147475370206 -0.47383295202033987 -0.0
  outer loop
    vertex -4.327346911317221 -1.9888375899286783 0.79375
    vertex -4.043957042225613 -2.515515392644989 -1.5875
    vertex -4.043957042225613 -2.515515392644989 0.79375
  endloop
endfacet
facet normal -0.8806147475370206 -0.47383295202033987 -0.0
  outer loop
    vertex -4.043957042225613 -2.515515392644989 -1.5875
    vertex -4.327346911317221 -1.9888375899286783 0.79375
    vertex -4.327346911317221 -1.9888375899286783 -1.5875
  endloop
endfacet
facet normal -0.9330578532718448 -0.3597263438333878 -0.0
  outer loop
    vertex -4.5424919345856125 -1.4307946303452044 0.79375
    vertex -4.327346911317221 -1.9888375899286783 -1.5875
    vertex -4.327346911317221 -1.9888375899286783 0.79375
  endloop
endfacet
facet normal -0.9330578532718448 -0.3597263438333878 -0.0
  outer loop
    vertex -4.327346911317221 -1.9888375899286783 -1.5875
    vertex -4.5424919345856125 -1.4307946303452044 0.79375
    vertex -4.5424919345856125 -1.4307946303452044 -1.5875
  endloop
endfacet
facet normal -0.9707860792788274 -0.23994663631408167 -0.0
  outer loop
    vertex -4.685999146492437 -0.8501871847259059 0.79375
    vertex -4.5424919345856125 -1.4307946303452044 -1.5875
    vertex -4.5424919345856125 -1.4307946303452044 0.79375
  endloop
endfacet
facet normal -0.9707860792788274 -0.23994663631408167 -0.0
  outer loop
    vertex -4.5424919345856125 -1.4307946303452044 -1.5875
    vertex -4.685999146492437 -0.8501871847259059 0.79375
    vertex -4.685999146492437 -0.8501871847259059 -1.5875
  endloop
endfacet
facet normal -0.9932044288960888 -0.11638282700293061 -0.0
  outer loop
    vertex -4.755605352578872 -0.2561717793262711 0.79375
    vertex -4.685999146492437 -0.8501871847259059 -1.5875
    vertex -4.685999146492437 -0.8501871847259059 0.79375
  endloop
endfacet
facet normal -0.9932044288960888 -0.11638282700293061 -0.0
  outer loop
    vertex -4.685999146492437 -0.8501871847259059 -1.5875
    vertex -4.755605352578872 -0.2561717793262711 0.79375
    vertex -4.755605352578872 -0.2561717793262711 -1.5875
  endloop
endfacet
facet normal -0.9999593513580921 0.009016409013785838 0.0
  outer loop
    vertex -4.750212821394204 0.3418836080629403 0.79375
    vertex -4.755605352578872 -0.2561717793262711 -1.5875
    vertex -4.755605352578872 -0.2561717793262711 0.79375
  endloop
endfacet
facet normal -0.9999593513580921 0.009016409013785838 0.0
  outer loop
    vertex -4.755605352578872 -0.2561717793262711 -1.5875
    vertex -4.750212821394204 0.3418836080629403 0.79375
    vertex -4.750212821394204 0.3418836080629403 -1.5875
  endloop
endfacet
facet normal -0.9909443175024162 0.1342734508742176 0.0
  outer loop
    vertex -4.669906596376554 0.9345472867216326 0.79375
    vertex -4.750212821394204 0.3418836080629403 -1.5875
    vertex -4.750212821394204 0.3418836080629403 0.79375
  endloop
endfacet
facet normal -0.9909443175024162 0.1342734508742176 0.0
  outer loop
    vertex -4.750212821394204 0.3418836080629403 -1.5875
    vertex -4.669906596376554 0.9345472867216326 0.79375
    vertex -4.669906596376554 0.9345472867216326 -1.5875
  endloop
endfacet
facet normal -0.9663014997982854 0.2574129202032881 0.0
  outer loop
    vertex -4.515953154667065 1.5124725963972359 0.79375
    vertex -4.669906596376554 0.9345472867216326 -1.5875
    vertex -4.669906596376554 0.9345472867216326 0.79375
  endloop
endfacet
facet normal -0.9663014997982854 0.2574129202032881 0.0
  outer loop
    vertex -4.669906596376554 0.9345472867216326 -1.5875
    vertex -4.515953154667065 1.5124725963972359 0.79375
    vertex -4.515953154667065 1.5124725963972359 -1.5875
  endloop
endfacet
facet normal -0.9264195302017992 0.3764928340097292 0.0
  outer loop
    vertex -4.290780434008824 2.0665453097203197 0.79375
    vertex -4.515953154667065 1.5124725963972359 -1.5875
    vertex -4.515953154667065 1.5124725963972359 0.79375
  endloop
endfacet
facet normal -0.9264195302017992 0.3764928340097292 0.0
  outer loop
    vertex -4.515953154667065 1.5124725963972359 -1.5875
    vertex -4.290780434008824 2.0665453097203197 0.79375
    vertex -4.290780434008824 2.0665453097203197 -1.5875
  endloop
endfacet
facet normal -0.8719273711978297 0.48963523091791733 0.0
  outer loop
    vertex -3.9979395427182762 2.5880273690147857 0.79375
    vertex -4.290780434008824 2.0665453097203197 -1.5875
    vertex -4.290780434008824 2.0665453097203197 0.79375
  endloop
endfacet
facet normal -0.8719273711978297 0.48963523091791733 0.0
  outer loop
    vertex -4.290780434008824 2.0665453097203197 -1.5875
    vertex -3.9979395427182762 2.5880273690147857 0.79375
    vertex -3.9979395427182762 2.5880273690147857 -1.5875
  endloop
endfacet
facet normal -0.8036843966859043 0.5950557877406235 0.0
  outer loop
    vertex -3.642048756585741 3.0686946906872747 0.79375
    vertex -3.9979395427182762 2.5880273690147857 -1.5875
    vertex -3.9979395427182762 2.5880273690147857 0.79375
  endloop
endfacet
facet normal -0.8036843966859043 0.5950557877406235 0.0
  outer loop
    vertex -3.9979395427182762 2.5880273690147857 -1.5875
    vertex -3.642048756585741 3.0686946906872747 0.79375
    vertex -3.642048756585741 3.0686946906872747 -1.5875
  endloop
endfacet
facet normal -0.7227668391404559 0.6910919593215611 0.0
  outer loop
    vertex -3.2287206859073794 3.5009668639382743 0.79375
    vertex -3.642048756585741 3.0686946906872747 -1.5875
    vertex -3.642048756585741 3.0686946906872747 0.79375
  endloop
endfacet
facet normal -0.7227668391404559 0.6910919593215611 0.0
  outer loop
    vertex -3.642048756585741 3.0686946906872747 -1.5875
    vertex -3.2287206859073794 3.5009668639382743 0.79375
    vertex -3.2287206859073794 3.5009668639382743 -1.5875
  endloop
endfacet
facet normal -0.6304508167817798 0.7762291978656733 0.0
  outer loop
    vertex -3.2287206859073794 3.5009668639382743 0.79375
    vertex -2.7644737612680093 3.878026698368735 -1.5875
    vertex -3.2287206859073794 3.5009668639382743 -1.5875
  endloop
endfacet
facet normal -0.6304508167817798 0.7762291978656733 0.0
  outer loop
    vertex -2.7644737612680093 3.878026698368735 -1.5875
    vertex -3.2287206859073794 3.5009668639382743 0.79375
    vertex -2.7644737612680093 3.878026698368735 0.79375
  endloop
endfacet
facet normal -0.5281922084293954 0.849124838262595 0.0
  outer loop
    vertex -2.7644737612680093 3.878026698368735 0.79375
    vertex -2.256629433996866 4.1939277351450635 -1.5875
    vertex -2.7644737612680093 3.878026698368735 -1.5875
  endloop
endfacet
facet normal -0.5281922084293954 0.849124838262595 0.0
  outer loop
    vertex -2.256629433996866 4.1939277351450635 -1.5875
    vertex -2.7644737612680093 3.878026698368735 0.79375
    vertex -2.256629433996866 4.1939277351450635 0.79375
  endloop
endfacet
facet normal -0.4176036934233424 0.9086292727175277 0.0
  outer loop
    vertex -2.256629433996866 4.1939277351450635 0.79375
    vertex -1.7131967125065104 4.44368802620716 -1.5875
    vertex -2.256629433996866 4.1939277351450635 -1.5875
  endloop
endfacet
facet normal -0.4176036934233424 0.9086292727175277 0.0
  outer loop
    vertex -1.7131967125065104 4.44368802620716 -1.5875
    vertex -2.256629433996866 4.1939277351450635 0.79375
    vertex -1.7131967125065104 4.44368802620716 0.79375
  endloop
endfacet
facet normal -0.30042931870765566 0.9538040807528838 0.0
  outer loop
    vertex -1.7131967125065104 4.44368802620716 0.79375
    vertex -1.142745855445818 4.623368702565416 -1.5875
    vertex -1.7131967125065104 4.44368802620716 -1.5875
  endloop
endfacet
facet normal -0.30042931870765566 0.9538040807528838 0.0
  outer loop
    vertex -1.142745855445818 4.623368702565416 -1.5875
    vertex -1.7131967125065104 4.44368802620716 0.79375
    vertex -1.142745855445818 4.623368702565416 0.79375
  endloop
endfacet
facet normal -0.17851699416816974 0.983936828659829 0.0
  outer loop
    vertex -1.142745855445818 4.623368702565416 0.79375
    vertex -0.55427321360146 4.730136092617624 -1.5875
    vertex -1.142745855445818 4.623368702565416 -1.5875
  endloop
endfacet
facet normal -0.17851699416816974 0.983936828659829 0.0
  outer loop
    vertex -0.55427321360146 4.730136092617624 -1.5875
    vertex -1.142745855445818 4.623368702565416 0.79375
    vertex -0.55427321360146 4.730136092617624 0.79375
  endloop
endfacet
facet normal -0.05378934998976757 0.9985523050034377 0.0
  outer loop
    vertex -0.55427321360146 4.730136092617624 0.79375
    vertex 0.04294064792816258 4.762306410842913 -1.5875
    vertex -0.55427321360146 4.730136092617624 -1.5875
  endloop
endfacet
facet normal -0.05378934998976757 0.9985523050034377 0.0
  outer loop
    vertex 0.04294064792816258 4.762306410842913 -1.5875
    vertex -0.55427321360146 4.730136092617624 0.79375
    vertex 0.04294064792816258 4.762306410842913 0.79375
  endloop
endfacet
facet normal 0.07178658437017185 0.9974200149909086 0.0
  outer loop
    vertex 0.04294064792816258 4.762306410842913 0.79375
    vertex 0.6394773097884577 4.719372312105257 -1.5875
    vertex 0.04294064792816258 4.762306410842913 -1.5875
  endloop
endfacet
facet normal 0.07178658437017185 0.9974200149909086 0.0
  outer loop
    vertex 0.6394773097884577 4.719372312105257 -1.5875
    vertex 0.04294064792816258 4.762306410842913 0.79375
    vertex 0.6394773097884577 4.719372312105257 0.79375
  endloop
endfacet
facet normal 0.19623040141136663 0.9805578155121369 0.0
  outer loop
    vertex 0.6394773097884577 4.719372312105257 0.79375
    vertex 1.22592903246816 4.602010892789334 -1.5875
    vertex 0.6394773097884577 4.719372312105257 -1.5875
  endloop
endfacet
facet normal 0.19623040141136663 0.9805578155121369 0.0
  outer loop
    vertex 1.22592903246816 4.602010892789334 -1.5875
    vertex 0.6394773097884577 4.719372312105257 0.79375
    vertex 1.22592903246816 4.602010892789334 0.79375
  endloop
endfacet
facet normal 0.3175795477999448 0.9482316335258927 0.0
  outer loop
    vertex 1.22592903246816 4.602010892789334 0.79375
    vertex 1.7930471219713333 4.412073012586069 -1.5875
    vertex 1.22592903246816 4.602010892789334 -1.5875
  endloop
endfacet
facet normal 0.3175795477999448 0.9482316335258927 0.0
  outer loop
    vertex 1.7930471219713333 4.412073012586069 -1.5875
    vertex 1.22592903246816 4.602010892789334 0.79375
    vertex 1.7930471219713333 4.412073012586069 0.79375
  endloop
endfacet
facet normal 0.43392027500689145 0.9009512722328239 0.0
  outer loop
    vertex 1.7930471219713333 4.412073012586069 0.79375
    vertex 2.331887787246587 4.15255410532966 -1.5875
    vertex 1.7930471219713333 4.412073012586069 -1.5875
  endloop
endfacet
facet normal 0.43392027500689145 0.9009512722328239 0.0
  outer loop
    vertex 2.331887787246587 4.15255410532966 -1.5875
    vertex 1.7930471219713333 4.412073012586069 0.79375
    vertex 2.331887787246587 4.15255410532966 0.79375
  endloop
endfacet
facet normal 0.0 0.0 -1.0
  outer loop
    vertex -1.3493983793258282 0.36157020600822254 0.0
    vertex -1.3493983793258284 -0.3615702060082208 0.0
    vertex -1.397 2.566247367613278e-16 0.0
  endloop
endfacet
facet normal 0.0 0.0 -1.0
  outer loop
    vertex -1.3493983793258284 -0.3615702060082208 0.0
    vertex -1.3493983793258282 0.36157020600822254 0.0
    vertex -1.2098374890868613 -0.698499999999999 0.0
  endloop
endfacet
facet normal 0.0 0.0 -1.0
  outer loop
    vertex -1.2098374890868613 -0.698499999999999 0.0
    vertex -1.3493983793258282 0.36157020600822254 0.0
    vertex -1.2098374890868606 0.6985000000000006 0.0
  endloop
endfacet
facet normal 0.0 0.0 -1.0
  outer loop
    vertex -1.2098374890868613 -0.698499999999999 0.0
    vertex -1.2098374890868606 0.6985000000000006 0.0
    vertex -0.9878281733176071 -0.9878281733176066 0.0
  endloop
endfacet
facet normal 0.0 0.0 -1.0
  outer loop
    vertex -0.9878281733176071 -0.9878281733176066 0.0
    vertex -1.2098374890868606 0.6985000000000006 0.0
    vertex -0.9878281733176063 0.9878281733176074 0.0
  endloop
endfacet
facet normal 0.0 0.0 -1.0
  outer loop
    vertex -0.9878281733176071 -0.9878281733176066 0.0
    vertex -0.9878281733176063 0.9878281733176074 0.0
    vertex -0.6985000000000006 -1.2098374890868604 0.0
  endloop
endfacet
facet normal 0.0 0.0 -1.0
  outer loop
    vertex -0.6985000000000006 -1.2098374890868604 0.0
    vertex -0.9878281733176063 0.9878281733176074 0.0
    vertex -0.6984999999999996 1.2098374890868608 0.0
  endloop
endfacet
facet normal 0.0 0.0 -1.0
  outer loop
    vertex -0.6985000000000006 -1.2098374890868604 0.0
    vertex -0.6984999999999996 1.2098374890868608 0.0
    vertex -0.3615702060082226 -1.3493983793258282 0.0
  endloop
endfacet
facet normal 0.0 0.0 -1.0
  outer loop
    vertex -0.3615702060082226 -1.3493983793258282 0.0
    vertex -0.6984999999999996 1.2098374890868608 0.0
    vertex -0.36157020600822093 1.3493983793258284 0.0
  endloop
endfacet
facet normal 0.0 0.0 -1.0
  outer loop
    vertex -0.3615702060082226 -1.3493983793258282 0.0
    vertex -0.36157020600822093 1.3493983793258284 0.0
    vertex 0.0 -1.397 0.0
  endloop
endfacet
facet normal 0.0 0.0 -1.0
  outer loop
    vertex 0.0 -1.397 0.0
    vertex -0.36157020600822093 1.3493983793258284 0.0
    vertex 1.7108315784088522e-16 1.397 0.0
  endloop
endfacet
facet normal 0.0 0.0 -1.0
  outer loop
    vertex 0.0 -1.397 0.0
    vertex 1.7108315784088522e-16 1.397 0.0
    vertex 0.36157020600822143 -1.3493983793258284 0.0
  endloop
endfacet
facet normal 0.0 0.0 -1.0
  outer loop
    vertex 0.36157020600822143 -1.3493983793258284 0.0
    vertex 1.7108315784088522e-16 1.397 0.0
    vertex 0.3615702060082219 1.3493983793258282 0.0
  endloop
endfacet
facet normal 0.0 0.0 -1.0
  outer loop
    vertex 0.36157020600822143 -1.3493983793258284 0.0
    vertex 0.3615702060082219 1.3493983793258282 0.0
    vertex 0.6984999999999999 -1.2098374890868608 0.0
  endloop
endfacet
facet normal 0.0 0.0 -1.0
  outer loop
    vertex 0.6984999999999999 -1.2098374890868608 0.0
    vertex 0.3615702060082219 1.3493983793258282 0.0
    vertex 0.6985000000000005 1.2098374890868606 0.0
  endloop
endfacet
facet normal 0.0 0.0 -1.0
  outer loop
    vertex 0.6984999999999999 -1.2098374890868608 0.0
    vertex 0.6985000000000005 1.2098374890868606 0.0
    vertex 0.9878281733176069 -0.9878281733176069 0.0
  endloop
endfacet
facet normal 0.0 0.0 -1.0
  outer loop
    vertex 0.9878281733176069 -0.9878281733176069 0.0
    vertex 0.6985000000000005 1.2098374890868606 0.0
    vertex 0.9878281733176069 0.9878281733176066 0.0
  endloop
endfacet
facet normal 0.0 0.0 -1.0
  outer loop
    vertex 0.9878281733176069 -0.9878281733176069 0.0
    vertex 0.9878281733176069 0.9878281733176066 0.0
    vertex 1.2098374890868608 0.6984999999999996 0.0
  endloop
endfacet
facet normal 0.0 0.0 -1.0
  outer loop
    vertex 0.9878281733176069 -0.9878281733176069 0.0
    vertex 1.2098374890868608 0.6984999999999996 0.0
    vertex 1.2098374890868608 -0.6985000000000001 0.0
  endloop
endfacet
facet normal 0.0 0.0 -1.0
  outer loop
    vertex 1.2098374890868608 -0.6985000000000001 0.0
    vertex 1.2098374890868608 0.6984999999999996 0.0
    vertex 1.3493983793258284 0.3615702060082213 0.0
  endloop
endfacet
facet normal 0.0 0.0 -1.0
  outer loop
    vertex 1.2098374890868608 -0.6985000000000001 0.0
    vertex 1.3493983793258284 0.3615702060082213 0.0
    vertex 1.3493983793258282 -0.36157020600822176 0.0
  endloop
endfacet
facet normal 0.0 0.0 -1.0
  outer loop
    vertex 1.3493983793258282 -0.36157020600822176 0.0
    vertex 1.3493983793258284 0.3615702060082213 0.0
    vertex 1.397 -8.554157892044261e-17 0.0
  endloop
endfacet
facet normal 0.0 0.0 -1.0
  outer loop
    vertex -1.142745855445818 4.623368702565416 -1.5875
    vertex -1.397 2.566247367613278e-16 -1.5875
    vertex -1.7131967125065104 4.44368802620716 -1.5875
  endloop
endfacet
facet normal 0.0 0.0 -1.0
  outer loop
    vertex -1.397 2.566247367613278e-16 -1.5875
    vertex -1.142745855445818 4.623368702565416 -1.5875
    vertex -1.3493983793258282 0.36157020600822254 -1.5875
  endloop
endfacet
facet normal 0.0 0.0 -1.0
  outer loop
    vertex -1.3493983793258282 0.36157020600822254 -1.5875
    vertex -1.142745855445818 4.623368702565416 -1.5875
    vertex -1.2098374890868606 0.6985000000000006 -1.5875
  endloop
endfacet
facet normal 0.0 0.0 -1.0
  outer loop
    vertex -1.2098374890868606 0.6985000000000006 -1.5875
    vertex -1.142745855445818 4.623368702565416 -1.5875
    vertex -0.9878281733176063 0.9878281733176074 -1.5875
  endloop
endfacet
facet normal 0.0 0.0 -1.0
  outer loop
    vertex -0.9878281733176063 0.9878281733176074 -1.5875
    vertex -1.142745855445818 4.623368702565416 -1.5875
    vertex -0.55427321360146 4.730136092617624 -1.5875
  endloop
endfacet
facet normal 0.0 0.0 -1.0
  outer loop
    vertex -0.9878281733176063 0.9878281733176074 -1.5875
    vertex -0.55427321360146 4.730136092617624 -1.5875
    vertex -0.6984999999999996 1.2098374890868608 -1.5875
  endloop
endfacet
facet normal 0.0 0.0 -1.0
  outer loop
    vertex -0.6984999999999996 1.2098374890868608 -1.5875
    vertex -0.55427321360146 4.730136092617624 -1.5875
    vertex -0.36157020600822093 1.3493983793258284 -1.5875
  endloop
endfacet
facet normal 0.0 0.0 -1.0
  outer loop
    vertex -0.36157020600822093 1.3493983793258284 -1.5875
    vertex -0.55427321360146 4.730136092617624 -1.5875
    vertex 0.04294064792816258 4.762306410842913 -1.5875
  endloop
endfacet
facet normal 0.0 0.0 -1.0
  outer loop
    vertex -0.36157020600822093 1.3493983793258284 -1.5875
    vertex 0.04294064792816258 4.762306410842913 -1.5875
    vertex 1.7108315784088522e-16 1.397 -1.5875
  endloop
endfacet
facet normal 0.0 0.0 -1.0
  outer loop
    vertex 1.7108315784088522e-16 1.397 -1.5875
    vertex 0.04294064792816258 4.762306410842913 -1.5875
    vertex 0.3615702060082219 1.3493983793258282 -1.5875
  endloop
endfacet
facet normal 0.0 0.0 -1.0
  outer loop
    vertex 0.3615702060082219 1.3493983793258282 -1.5875
    vertex 0.04294064792816258 4.762306410842913 -1.5875
    vertex 0.6394773097884577 4.719372312105257 -1.5875
  endloop
endfacet
facet normal 0.0 0.0 -1.0
  outer loop
    vertex 0.3615702060082219 1.3493983793258282 -1.5875
    vertex 0.6394773097884577 4.719372312105257 -1.5875
    vertex 0.6985000000000005 1.2098374890868606 -1.5875
  endloop
endfacet
facet normal 0.0 0.0 -1.0
  outer loop
    vertex 0.6985000000000005 1.2098374890868606 -1.5875
    vertex 0.6394773097884577 4.719372312105257 -1.5875
    vertex 1.22592903246816 4.602010892789334 -1.5875
  endloop
endfacet
facet normal 0.0 0.0 -1.0
  outer loop
    vertex 0.6985000000000005 1.2098374890868606 -1.5875
    vertex 1.22592903246816 4.602010892789334 -1.5875
    vertex 0.9878281733176069 0.9878281733176066 -1.5875
  endloop
endfacet
facet normal 0.0 0.0 -1.0
  outer loop
    vertex 0.9878281733176069 0.9878281733176066 -1.5875
    vertex 1.22592903246816 4.602010892789334 -1.5875
    vertex 1.2098374890868608 0.6984999999999996 -1.5875
  endloop
endfacet
facet normal 0.0 0.0 -1.0
  outer loop
    vertex 1.2098374890868608 0.6984999999999996 -1.5875
    vertex 1.22592903246816 4.602010892789334 -1.5875
    vertex 1.3493983793258284 0.3615702060082213 -1.5875
  endloop
endfacet
facet normal 0.0 0.0 -1.0
  outer loop
    vertex 1.3493983793258284 0.3615702060082213 -1.5875
    vertex 1.22592903246816 4.602010892789334 -1.5875
    vertex 1.7930471219713333 4.412073012586069 -1.5875
  endloop
endfacet
facet normal 0.0 0.0 -1.0
  outer loop
    vertex 1.3493983793258284 0.3615702060082213 -1.5875
    vertex 1.7930471219713333 4.412073012586069 -1.5875
    vertex 1.397 -8.554157892044261e-17 -1.5875
  endloop
endfacet
facet normal 0.0 0.0 -1.0
  outer loop
    vertex 1.397 -8.554157892044261e-17 -1.5875
    vertex 1.7930471219713333 4.412073012586069 -1.5875
    vertex 1.7131967125065122 -4.44368802620716 -1.5875
  endloop
endfacet
facet normal 0.0 0.0 -1.0
  outer loop
    vertex 1.7131967125065122 -4.44368802620716 -1.5875
    vertex 1.7930471219713333 4.412073012586069 -1.5875
    vertex 2.256629433996869 -4.193927735145061 -1.5875
  endloop
endfacet
facet normal 0.0 0.0 -1.0
  outer loop
    vertex 2.256629433996869 -4.193927735145061 -1.5875
    vertex 1.7930471219713333 4.412073012586069 -1.5875
    vertex 2.331887787246587 4.15255410532966 -1.5875
  endloop
endfacet
facet normal 0.0 0.0 -1.0
  outer loop
    vertex 2.256629433996869 -4.193927735145061 -1.5875
    vertex 2.331887787246587 4.15255410532966 -1.5875
    vertex 2.764473761268009 -3.878026698368736 -1.5875
  endloop
endfacet
facet normal 0.0 0.0 -1.0
  outer loop
    vertex 2.764473761268009 -3.878026698368736 -1.5875
    vertex 2.331887787246587 4.15255410532966 -1.5875
    vertex 2.833953189114719 3.82754693921662 -1.5875
  endloop
endfacet
facet normal 0.0 0.0 -1.0
  outer loop
    vertex 2.764473761268009 -3.878026698368736 -1.5875
    vertex 2.833953189114719 3.82754693921662 -1.5875
    vertex 3.2287206859073785 -3.5009668639382743 -1.5875
  endloop
endfacet
facet normal 0.0 0.0 -1.0
  outer loop
    vertex 3.2287206859073785 -3.5009668639382743 -1.5875
    vertex 2.833953189114719 3.82754693921662 -1.5875
    vertex 3.291325456268934 3.4421770714064213 -1.5875
  endloop
endfacet
facet normal 0.0 0.0 -1.0
  outer loop
    vertex 3.2287206859073785 -3.5009668639382743 -1.5875
    vertex 3.291325456268934 3.4421770714064213 -1.5875
    vertex 3.642048756585741 -3.0686946906872747 -1.5875
  endloop
endfacet
facet normal 0.0 0.0 -1.0
  outer loop
    vertex 3.642048756585741 -3.0686946906872747 -1.5875
    vertex 3.291325456268934 3.4421770714064213 -1.5875
    vertex 3.6967915548352663 3.002522014923231 -1.5875
  endloop
endfacet
facet normal 0.0 0.0 -1.0
  outer loop
    vertex 3.642048756585741 -3.0686946906872747 -1.5875
    vertex 3.6967915548352663 3.002522014923231 -1.5875
    vertex 3.997939542718277 -2.5880273690147844 -1.5875
  endloop
endfacet
facet normal 0.0 0.0 -1.0
  outer loop
    vertex 3.997939542718277 -2.5880273690147844 -1.5875
    vertex 3.6967915548352663 3.002522014923231 -1.5875
    vertex 4.043957042225613 2.515515392644989 -1.5875
  endloop
endfacet
facet normal 0.0 0.0 -1.0
  outer loop
    vertex 3.997939542718277 -2.5880273690147844 -1.5875
    vertex 4.043957042225613 2.515515392644989 -1.5875
    vertex 4.290780434008825 -2.0665453097203184 -1.5875
  endloop
endfacet
facet normal 0.0 0.0 -1.0
  outer loop
    vertex 4.290780434008825 -2.0665453097203184 -1.5875
    vertex 4.043957042225613 2.515515392644989 -1.5875
    vertex 4.327346911317221 1.9888375899286783 -1.5875
  endloop
endfacet
facet normal 0.0 0.0 -1.0
  outer loop
    vertex 4.290780434008825 -2.0665453097203184 -1.5875
    vertex 4.327346911317221 1.9888375899286783 -1.5875
    vertex 4.515953154667065 -1.5124725963972374 -1.5875
  endloop
endfacet
facet normal 0.0 0.0 -1.0
  outer loop
    vertex 4.515953154667065 -1.5124725963972374 -1.5875
    vertex 4.327346911317221 1.9888375899286783 -1.5875
    vertex 4.542491934585611 1.4307946303452075 -1.5875
  endloop
endfacet
facet normal 0.0 0.0 -1.0
  outer loop
    vertex 4.515953154667065 -1.5124725963972374 -1.5875
    vertex 4.542491934585611 1.4307946303452075 -1.5875
    vertex 4.669906596376554 -0.9345472867216339 -1.5875
  endloop
endfacet
facet normal 0.0 0.0 -1.0
  outer loop
    vertex 4.669906596376554 -0.9345472867216339 -1.5875
    vertex 4.542491934585611 1.4307946303452075 -1.5875
    vertex 4.685999146492437 0.850187184725907 -1.5875
  endloop
endfacet
facet normal 0.0 0.0 -1.0
  outer loop
    vertex 4.669906596376554 -0.9345472867216339 -1.5875
    vertex 4.685999146492437 0.850187184725907 -1.5875
    vertex 4.750212821394203 -0.341883608062941 -1.5875
  endloop
endfacet
facet normal 0.0 0.0 -1.0
  outer loop
    vertex 4.750212821394203 -0.341883608062941 -1.5875
    vertex 4.685999146492437 0.850187184725907 -1.5875
    vertex 4.755605352578872 0.25617177932627216 -1.5875
  endloop
endfacet
facet normal 0.0 0.0 -1.0
  outer loop
    vertex -4.750212821394204 0.3418836080629403 -1.5875
    vertex -4.685999146492437 -0.8501871847259059 -1.5875
    vertex -4.755605352578872 -0.2561717793262711 -1.5875
  endloop
endfacet
facet normal 0.0 0.0 -1.0
  outer loop
    vertex -4.685999146492437 -0.8501871847259059 -1.5875
    vertex -4.750212821394204 0.3418836080629403 -1.5875
    vertex -4.669906596376554 0.9345472867216326 -1.5875
  endloop
endfacet
facet normal 0.0 0.0 -1.0
  outer loop
    vertex -4.685999146492437 -0.8501871847259059 -1.5875
    vertex -4.669906596376554 0.9345472867216326 -1.5875
    vertex -4.5424919345856125 -1.4307946303452044 -1.5875
  endloop
endfacet
facet normal 0.0 0.0 -1.0
  outer loop
    vertex -4.5424919345856125 -1.4307946303452044 -1.5875
    vertex -4.669906596376554 0.9345472867216326 -1.5875
    vertex -4.515953154667065 1.5124725963972359 -1.5875
  endloop
endfacet
facet normal 0.0 0.0 -1.0
  outer loop
    vertex -4.5424919345856125 -1.4307946303452044 -1.5875
    vertex -4.515953154667065 1.5124725963972359 -1.5875
    vertex -4.327346911317221 -1.9888375899286783 -1.5875
  endloop
endfacet
facet normal 0.0 0.0 -1.0
  outer loop
    vertex -4.327346911317221 -1.9888375899286783 -1.5875
    vertex -4.515953154667065 1.5124725963972359 -1.5875
    vertex -4.290780434008824 2.0665453097203197 -1.5875
  endloop
endfacet
facet normal 0.0 0.0 -1.0
  outer loop
    vertex -4.327346911317221 -1.9888375899286783 -1.5875
    vertex -4.290780434008824 2.0665453097203197 -1.5875
    vertex -4.043957042225613 -2.515515392644989 -1.5875
  endloop
endfacet
facet normal 0.0 0.0 -1.0
  outer loop
    vertex -4.043957042225613 -2.515515392644989 -1.5875
    vertex -4.290780434008824 2.0665453097203197 -1.5875
    vertex -3.9979395427182762 2.5880273690147857 -1.5875
  endloop
endfacet
facet normal 0.0 0.0 -1.0
  outer loop
    vertex -4.043957042225613 -2.515515392644989 -1.5875
    vertex -3.9979395427182762 2.5880273690147857 -1.5875
    vertex -3.696791554835267 -3.0025220149232292 -1.5875
  endloop
endfacet
facet normal 0.0 0.0 -1.0
  outer loop
    vertex -3.696791554835267 -3.0025220149232292 -1.5875
    vertex -3.9979395427182762 2.5880273690147857 -1.5875
    vertex -3.642048756585741 3.0686946906872747 -1.5875
  endloop
endfacet
facet normal 0.0 0.0 -1.0
  outer loop
    vertex -3.696791554835267 -3.0025220149232292 -1.5875
    vertex -3.642048756585741 3.0686946906872747 -1.5875
    vertex -3.2913254562689356 -3.4421770714064204 -1.5875
  endloop
endfacet
facet normal 0.0 0.0 -1.0
  outer loop
    vertex -3.2913254562689356 -3.4421770714064204 -1.5875
    vertex -3.642048756585741 3.0686946906872747 -1.5875
    vertex -3.2287206859073794 3.5009668639382743 -1.5875
  endloop
endfacet
facet normal 0.0 0.0 -1.0
  outer loop
    vertex -3.2913254562689356 -3.4421770714064204 -1.5875
    vertex -3.2287206859073794 3.5009668639382743 -1.5875
    vertex -2.8339531891147183 -3.827546939216621 -1.5875
  endloop
endfacet
facet normal 0.0 0.0 -1.0
  outer loop
    vertex -2.8339531891147183 -3.827546939216621 -1.5875
    vertex -3.2287206859073794 3.5009668639382743 -1.5875
    vertex -2.7644737612680093 3.878026698368735 -1.5875
  endloop
endfacet
facet normal 0.0 0.0 -1.0
  outer loop
    vertex -2.8339531891147183 -3.827546939216621 -1.5875
    vertex -2.7644737612680093 3.878026698368735 -1.5875
    vertex -2.331887787246587 -4.152554105329661 -1.5875
  endloop
endfacet
facet normal 0.0 0.0 -1.0
  outer loop
    vertex -2.331887787246587 -4.152554105329661 -1.5875
    vertex -2.7644737612680093 3.878026698368735 -1.5875
    vertex -2.256629433996866 4.1939277351450635 -1.5875
  endloop
endfacet
facet normal 0.0 0.0 -1.0
  outer loop
    vertex -2.331887787246587 -4.152554105329661 -1.5875
    vertex -2.256629433996866 4.1939277351450635 -1.5875
    vertex -1.7930471219713326 -4.41207301258607 -1.5875
  endloop
endfacet
facet normal 0.0 0.0 -1.0
  outer loop
    vertex -1.7930471219713326 -4.41207301258607 -1.5875
    vertex -2.256629433996866 4.1939277351450635 -1.5875
    vertex -1.7131967125065104 4.44368802620716 -1.5875
  endloop
endfacet
facet normal 0.0 0.0 -1.0
  outer loop
    vertex -1.7930471219713326 -4.41207301258607 -1.5875
    vertex -1.7131967125065104 4.44368802620716 -1.5875
    vertex -1.2259290324681582 -4.602010892789334 -1.5875
  endloop
endfacet
facet normal 0.0 0.0 -1.0
  outer loop
    vertex -1.2259290324681582 -4.602010892789334 -1.5875
    vertex -1.7131967125065104 4.44368802620716 -1.5875
    vertex -1.397 2.566247367613278e-16 -1.5875
  endloop
endfacet
facet normal 0.0 0.0 -1.0
  outer loop
    vertex -1.2259290324681582 -4.602010892789334 -1.5875
    vertex -1.397 2.566247367613278e-16 -1.5875
    vertex -1.3493983793258284 -0.3615702060082208 -1.5875
  endloop
endfacet
facet normal 0.0 0.0 -1.0
  outer loop
    vertex -1.2259290324681582 -4.602010892789334 -1.5875
    vertex -1.3493983793258284 -0.3615702060082208 -1.5875
    vertex -1.2098374890868613 -0.698499999999999 -1.5875
  endloop
endfacet
facet normal 0.0 0.0 -1.0
  outer loop
    vertex -1.2259290324681582 -4.602010892789334 -1.5875
    vertex -1.2098374890868613 -0.698499999999999 -1.5875
    vertex -0.6394773097884574 -4.719372312105257 -1.5875
  endloop
endfacet
facet normal 0.0 0.0 -1.0
  outer loop
    vertex -0.6394773097884574 -4.719372312105257 -1.5875
    vertex -1.2098374890868613 -0.698499999999999 -1.5875
    vertex -0.9878281733176071 -0.9878281733176066 -1.5875
  endloop
endfacet
facet normal 0.0 0.0 -1.0
  outer loop
    vertex -0.6394773097884574 -4.719372312105257 -1.5875
    vertex -0.9878281733176071 -0.9878281733176066 -1.5875
    vertex -0.6985000000000006 -1.2098374890868604 -1.5875
  endloop
endfacet
facet normal 0.0 0.0 -1.0
  outer loop
    vertex -0.6394773097884574 -4.719372312105257 -1.5875
    vertex -0.6985000000000006 -1.2098374890868604 -1.5875
    vertex -0.3615702060082226 -1.3493983793258282 -1.5875
  endloop
endfacet
facet normal 0.0 0.0 -1.0
  outer loop
    vertex -0.6394773097884574 -4.719372312105257 -1.5875
    vertex -0.3615702060082226 -1.3493983793258282 -1.5875
    vertex -0.04294064792816082 -4.762306410842913 -1.5875
  endloop
endfacet
facet normal 0.0 0.0 -1.0
  outer loop
    vertex -0.04294064792816082 -4.762306410842913 -1.5875
    vertex -0.3615702060082226 -1.3493983793258282 -1.5875
    vertex 0.0 -1.397 -1.5875
  endloop
endfacet
facet normal 0.0 0.0 -1.0
  outer loop
    vertex -0.04294064792816082 -4.762306410842913 -1.5875
    vertex 0.0 -1.397 -1.5875
    vertex 0.55427321360146 -4.730136092617624 -1.5875
  endloop
endfacet
facet normal 0.0 0.0 -1.0
  outer loop
    vertex 0.55427321360146 -4.730136092617624 -1.5875
    vertex 0.0 -1.397 -1.5875
    vertex 0.36157020600822143 -1.3493983793258284 -1.5875
  endloop
endfacet
facet normal 0.0 0.0 -1.0
  outer loop
    vertex 0.55427321360146 -4.730136092617624 -1.5875
    vertex 0.36157020600822143 -1.3493983793258284 -1.5875
    vertex 0.6984999999999999 -1.2098374890868608 -1.5875
  endloop
endfacet
facet normal 0.0 0.0 -1.0
  outer loop
    vertex 0.55427321360146 -4.730136092617624 -1.5875
    vertex 0.6984999999999999 -1.2098374890868608 -1.5875
    vertex 1.142745855445819 -4.623368702565416 -1.5875
  endloop
endfacet
facet normal 0.0 0.0 -1.0
  outer loop
    vertex 1.142745855445819 -4.623368702565416 -1.5875
    vertex 0.6984999999999999 -1.2098374890868608 -1.5875
    vertex 0.9878281733176069 -0.9878281733176069 -1.5875
  endloop
endfacet
facet normal 0.0 0.0 -1.0
  outer loop
    vertex 1.142745855445819 -4.623368702565416 -1.5875
    vertex 0.9878281733176069 -0.9878281733176069 -1.5875
    vertex 1.2098374890868608 -0.6985000000000001 -1.5875
  endloop
endfacet
facet normal 0.0 0.0 -1.0
  outer loop
    vertex 1.142745855445819 -4.623368702565416 -1.5875
    vertex 1.2098374890868608 -0.6985000000000001 -1.5875
    vertex 1.7131967125065122 -4.44368802620716 -1.5875
  endloop
endfacet
facet normal 0.0 0.0 -1.0
  outer loop
    vertex 1.7131967125065122 -4.44368802620716 -1.5875
    vertex 1.2098374890868608 -0.6985000000000001 -1.5875
    vertex 1.3493983793258282 -0.36157020600822176 -1.5875
  endloop
endfacet
facet normal 0.0 0.0 -1.0
  outer loop
    vertex 1.7131967125065122 -4.44368802620716 -1.5875
    vertex 1.3493983793258282 -0.36157020600822176 -1.5875
    vertex 1.397 -8.554157892044261e-17 -1.5875
  endloop
endfacet
facet normal 0.9238795325112865 -0.38268343236509017 0.0
  outer loop
    vertex -1.2098374890868606 0.6985000000000006 -1.5875
    vertex -1.3493983793258282 0.36157020600822254 0.0
    vertex -1.3493983793258282 0.36157020600822254 -1.5875
  endloop
endfacet
facet normal 0.9238795325112865 -0.38268343236509017 0.0
  outer loop
    vertex -1.3493983793258282 0.36157020600822254 0.0
    vertex -1.2098374890868606 0.6985000000000006 -1.5875
    vertex -1.2098374890868606 0.6985000000000006 0.0
  endloop
endfacet
facet normal 0.9914448613738105 -0.13052619222005182 0.0
  outer loop
    vertex -1.3493983793258282 0.36157020600822254 -1.5875
    vertex -1.397 2.566247367613278e-16 0.0
    vertex -1.397 2.566247367613278e-16 -1.5875
  endloop
endfacet
facet normal 0.9914448613738105 -0.13052619222005182 0.0
  outer loop
    vertex -1.397 2.566247367613278e-16 0.0
    vertex -1.3493983793258282 0.36157020600822254 -1.5875
    vertex -1.3493983793258282 0.36157020600822254 0.0
  endloop
endfacet
facet normal 0.9914448613738105 0.1305261922200513 0.0
  outer loop
    vertex -1.397 2.566247367613278e-16 -1.5875
    vertex -1.3493983793258284 -0.3615702060082208 0.0
    vertex -1.3493983793258284 -0.3615702060082208 -1.5875
  endloop
endfacet
facet normal 0.9914448613738105 0.1305261922200513 0.0
  outer loop
    vertex -1.3493983793258284 -0.3615702060082208 0.0
    vertex -1.397 2.566247367613278e-16 -1.5875
    vertex -1.397 2.566247367613278e-16 0.0
  endloop
endfacet
facet normal 0.9238795325112871 0.3826834323650893 0.0
  outer loop
    vertex -1.3493983793258284 -0.3615702060082208 -1.5875
    vertex -1.2098374890868613 -0.698499999999999 0.0
    vertex -1.2098374890868613 -0.698499999999999 -1.5875
  endloop
endfacet
facet normal 0.9238795325112871 0.3826834323650893 0.0
  outer loop
    vertex -1.2098374890868613 -0.698499999999999 0.0
    vertex -1.3493983793258284 -0.3615702060082208 -1.5875
    vertex -1.3493983793258284 -0.3615702060082208 0.0
  endloop
endfacet
facet normal 0.7933533402912355 0.6087614290087201 0.0
  outer loop
    vertex -1.2098374890868613 -0.698499999999999 -1.5875
    vertex -0.9878281733176071 -0.9878281733176066 0.0
    vertex -0.9878281733176071 -0.9878281733176066 -1.5875
  endloop
endfacet
facet normal 0.7933533402912355 0.6087614290087201 0.0
  outer loop
    vertex -0.9878281733176071 -0.9878281733176066 0.0
    vertex -1.2098374890868613 -0.698499999999999 -1.5875
    vertex -1.2098374890868613 -0.698499999999999 0.0
  endloop
endfacet
facet normal 0.6087614290087209 0.793353340291235 0.0
  outer loop
    vertex -0.9878281733176071 -0.9878281733176066 0.0
    vertex -0.6985000000000006 -1.2098374890868604 -1.5875
    vertex -0.9878281733176071 -0.9878281733176066 -1.5875
  endloop
endfacet
facet normal 0.6087614290087209 0.793353340291235 0.0
  outer loop
    vertex -0.6985000000000006 -1.2098374890868604 -1.5875
    vertex -0.9878281733176071 -0.9878281733176066 0.0
    vertex -0.6985000000000006 -1.2098374890868604 0.0
  endloop
endfacet
facet normal 0.38268343236509067 0.9238795325112864 0.0
  outer loop
    vertex -0.6985000000000006 -1.2098374890868604 0.0
    vertex -0.3615702060082226 -1.3493983793258282 -1.5875
    vertex -0.6985000000000006 -1.2098374890868604 -1.5875
  endloop
endfacet
facet normal 0.38268343236509067 0.9238795325112864 0.0
  outer loop
    vertex -0.3615702060082226 -1.3493983793258282 -1.5875
    vertex -0.6985000000000006 -1.2098374890868604 0.0
    vertex -0.3615702060082226 -1.3493983793258282 0.0
  endloop
endfacet
facet normal 0.1305261922200517 0.9914448613738104 0.0
  outer loop
    vertex -0.3615702060082226 -1.3493983793258282 0.0
    vertex 0.0 -1.397 -1.5875
    vertex -0.3615702060082226 -1.3493983793258282 -1.5875
  endloop
endfacet
facet normal 0.1305261922200517 0.9914448613738104 0.0
  outer loop
    vertex 0.0 -1.397 -1.5875
    vertex -0.3615702060082226 -1.3493983793258282 0.0
    vertex 0.0 -1.397 0.0
  endloop
endfacet
facet normal -0.13052619222005166 0.9914448613738104 0.0
  outer loop
    vertex 0.0 -1.397 0.0
    vertex 0.36157020600822143 -1.3493983793258284 -1.5875
    vertex 0.0 -1.397 -1.5875
  endloop
endfacet
facet normal -0.13052619222005166 0.9914448613738104 0.0
  outer loop
    vertex 0.36157020600822143 -1.3493983793258284 -1.5875
    vertex 0.0 -1.397 0.0
    vertex 0.36157020600822143 -1.3493983793258284 0.0
  endloop
endfacet
facet normal -0.3826834323650898 0.9238795325112867 0.0
  outer loop
    vertex 0.36157020600822143 -1.3493983793258284 0.0
    vertex 0.6984999999999999 -1.2098374890868608 -1.5875
    vertex 0.36157020600822143 -1.3493983793258284 -1.5875
  endloop
endfacet
facet normal -0.3826834323650898 0.9238795325112867 0.0
  outer loop
    vertex 0.6984999999999999 -1.2098374890868608 -1.5875
    vertex 0.36157020600822143 -1.3493983793258284 0.0
    vertex 0.6984999999999999 -1.2098374890868608 0.0
  endloop
endfacet
facet normal -0.6087614290087204 0.7933533402912353 0.0
  outer loop
    vertex 0.6984999999999999 -1.2098374890868608 0.0
    vertex 0.9878281733176069 -0.9878281733176069 -1.5875
    vertex 0.6984999999999999 -1.2098374890868608 -1.5875
  endloop
endfacet
facet normal -0.6087614290087204 0.7933533402912353 0.0
  outer loop
    vertex 0.9878281733176069 -0.9878281733176069 -1.5875
    vertex 0.6984999999999999 -1.2098374890868608 0.0
    vertex 0.9878281733176069 -0.9878281733176069 0.0
  endloop
endfacet
facet normal -0.7933533402912352 0.6087614290087209 0.0
  outer loop
    vertex 1.2098374890868608 -0.6985000000000001 0.0
    vertex 0.9878281733176069 -0.9878281733176069 -1.5875
    vertex 0.9878281733176069 -0.9878281733176069 0.0
  endloop
endfacet
facet normal -0.7933533402912352 0.6087614290087209 0.0
  outer loop
    vertex 0.9878281733176069 -0.9878281733176069 -1.5875
    vertex 1.2098374890868608 -0.6985000000000001 0.0
    vertex 1.2098374890868608 -0.6985000000000001 -1.5875
  endloop
endfacet
facet normal -0.923879532511287 0.3826834323650895 0.0
  outer loop
    vertex 1.3493983793258282 -0.36157020600822176 0.0
    vertex 1.2098374890868608 -0.6985000000000001 -1.5875
    vertex 1.2098374890868608 -0.6985000000000001 0.0
  endloop
endfacet
facet normal -0.923879532511287 0.3826834323650895 0.0
  outer loop
    vertex 1.2098374890868608 -0.6985000000000001 -1.5875
    vertex 1.3493983793258282 -0.36157020600822176 0.0
    vertex 1.3493983793258282 -0.36157020600822176 -1.5875
  endloop
endfacet
facet normal -0.9914448613738104 0.13052619222005205 0.0
  outer loop
    vertex 1.397 -8.554157892044261e-17 0.0
    vertex 1.3493983793258282 -0.36157020600822176 -1.5875
    vertex 1.3493983793258282 -0.36157020600822176 0.0
  endloop
endfacet
facet normal -0.9914448613738104 0.13052619222005205 0.0
  outer loop
    vertex 1.3493983793258282 -0.36157020600822176 -1.5875
    vertex 1.397 -8.554157892044261e-17 0.0
    vertex 1.397 -8.554157892044261e-17 -1.5875
  endloop
endfacet
facet normal -0.9914448613738105 -0.13052619222005166 -0.0
  outer loop
    vertex 1.3493983793258284 0.3615702060082213 0.0
    vertex 1.397 -8.554157892044261e-17 -1.5875
    vertex 1.397 -8.554157892044261e-17 0.0
  endloop
endfacet
facet normal -0.9914448613738105 -0.13052619222005166 -0.0
  outer loop
    vertex 1.397 -8.554157892044261e-17 -1.5875
    vertex 1.3493983793258284 0.3615702060082213 0.0
    vertex 1.3493983793258284 0.3615702060082213 -1.5875
  endloop
endfacet
facet normal -0.9238795325112867 -0.38268343236508995 -0.0
  outer loop
    vertex 1.2098374890868608 0.6984999999999996 0.0
    vertex 1.3493983793258284 0.3615702060082213 -1.5875
    vertex 1.3493983793258284 0.3615702060082213 0.0
  endloop
endfacet
facet normal -0.9238795325112867 -0.38268343236508995 -0.0
  outer loop
    vertex 1.3493983793258284 0.3615702060082213 -1.5875
    vertex 1.2098374890868608 0.6984999999999996 0.0
    vertex 1.2098374890868608 0.6984999999999996 -1.5875
  endloop
endfacet
facet normal -0.7933533402912355 -0.6087614290087204 -0.0
  outer loop
    vertex 0.9878281733176069 0.9878281733176066 0.0
    vertex 1.2098374890868608 0.6984999999999996 -1.5875
    vertex 1.2098374890868608 0.6984999999999996 0.0
  endloop
endfacet
facet normal -0.7933533402912355 -0.6087614290087204 -0.0
  outer loop
    vertex 1.2098374890868608 0.6984999999999996 -1.5875
    vertex 0.9878281733176069 0.9878281733176066 0.0
    vertex 0.9878281733176069 0.9878281733176066 -1.5875
  endloop
endfacet
facet normal -0.6087614290087211 -0.7933533402912347 -0.0
  outer loop
    vertex 0.9878281733176069 0.9878281733176066 0.0
    vertex 0.6985000000000005 1.2098374890868606 -1.5875
    vertex 0.9878281733176069 0.9878281733176066 -1.5875
  endloop
endfacet
facet normal -0.6087614290087211 -0.7933533402912347 -0.0
  outer loop
    vertex 0.6985000000000005 1.2098374890868606 -1.5875
    vertex 0.9878281733176069 0.9878281733176066 0.0
    vertex 0.6985000000000005 1.2098374890868606 0.0
  endloop
endfacet
facet normal -0.3826834323650896 -0.9238795325112867 -0.0
  outer loop
    vertex 0.6985000000000005 1.2098374890868606 0.0
    vertex 0.3615702060082219 1.3493983793258282 -1.5875
    vertex 0.6985000000000005 1.2098374890868606 -1.5875
  endloop
endfacet
facet normal -0.3826834323650896 -0.9238795325112867 -0.0
  outer loop
    vertex 0.3615702060082219 1.3493983793258282 -1.5875
    vertex 0.6985000000000005 1.2098374890868606 0.0
    vertex 0.3615702060082219 1.3493983793258282 0.0
  endloop
endfacet
facet normal -0.13052619222005205 -0.9914448613738104 -0.0
  outer loop
    vertex 0.3615702060082219 1.3493983793258282 0.0
    vertex 1.7108315784088522e-16 1.397 -1.5875
    vertex 0.3615702060082219 1.3493983793258282 -1.5875
  endloop
endfacet
facet normal -0.13052619222005205 -0.9914448613738104 -0.0
  outer loop
    vertex 1.7108315784088522e-16 1.397 -1.5875
    vertex 0.3615702060082219 1.3493983793258282 0.0
    vertex 1.7108315784088522e-16 1.397 0.0
  endloop
endfacet
facet normal 0.1305261922200513 -0.9914448613738105 0.0
  outer loop
    vertex 1.7108315784088522e-16 1.397 0.0
    vertex -0.36157020600822093 1.3493983793258284 -1.5875
    vertex 1.7108315784088522e-16 1.397 -1.5875
  endloop
endfacet
facet normal 0.1305261922200513 -0.9914448613738105 0.0
  outer loop
    vertex -0.36157020600822093 1.3493983793258284 -1.5875
    vertex 1.7108315784088522e-16 1.397 0.0
    vertex -0.36157020600822093 1.3493983793258284 0.0
  endloop
endfacet
facet normal 0.38268343236508956 -0.9238795325112868 0.0
  outer loop
    vertex -0.36157020600822093 1.3493983793258284 0.0
    vertex -0.6984999999999996 1.2098374890868608 -1.5875
    vertex -0.36157020600822093 1.3493983793258284 -1.5875
  endloop
endfacet
facet normal 0.38268343236508956 -0.9238795325112868 0.0
  outer loop
    vertex -0.6984999999999996 1.2098374890868608 -1.5875
    vertex -0.36157020600822093 1.3493983793258284 0.0
    vertex -0.6984999999999996 1.2098374890868608 0.0
  endloop
endfacet
facet normal 0.6087614290087202 -0.7933533402912355 0.0
  outer loop
    vertex -0.6984999999999996 1.2098374890868608 0.0
    vertex -0.9878281733176063 0.9878281733176074 -1.5875
    vertex -0.6984999999999996 1.2098374890868608 -1.5875
  endloop
endfacet
facet normal 0.6087614290087202 -0.7933533402912355 0.0
  outer loop
    vertex -0.9878281733176063 0.9878281733176074 -1.5875
    vertex -0.6984999999999996 1.2098374890868608 0.0
    vertex -0.9878281733176063 0.9878281733176074 0.0
  endloop
endfacet
facet normal 0.7933533402912348 -0.6087614290087213 0.0
  outer loop
    vertex -0.9878281733176063 0.9878281733176074 -1.5875
    vertex -1.2098374890868606 0.6985000000000006 0.0
    vertex -1.2098374890868606 0.6985000000000006 -1.5875
  endloop
endfacet
facet normal 0.7933533402912348 -0.6087614290087213 0.0
  outer loop
    vertex -1.2098374890868606 0.6985000000000006 0.0
    vertex -0.9878281733176063 0.9878281733176074 -1.5875
    vertex -0.9878281733176063 0.9878281733176074 0.0
  endloop
endfacet
endsolid AdjustmentScrewFoot
